<svg width="40" height="42" viewBox="0 0 40 42" fill="none" xmlns="http://www.w3.org/2000/svg">
<g id="Comments">
<g id="Chats">
<path id="Vector" d="M14.4941 22.6353L10.498 26.0558V12.3737C10.498 12.1469 10.5831 11.9294 10.7346 11.769C10.8861 11.6086 11.0915 11.5186 11.3057 11.5186H24.2277C24.4418 11.5186 24.6473 11.6086 24.7987 11.769C24.9502 11.9294 25.0353 12.1469 25.0353 12.3737V21.7801C25.0353 22.0069 24.9502 22.2244 24.7987 22.3848C24.6473 22.5452 24.4418 22.6353 24.2277 22.6353H14.4941Z" stroke="#CCCFD0" stroke-width="1.7" stroke-linecap="round" stroke-linejoin="round"/>
<path id="Vector_2" d="M15.344 22.6353V26.911C15.344 27.1378 15.4291 27.3553 15.5805 27.5157C15.732 27.676 15.9374 27.7661 16.1516 27.7661H25.8852L29.8812 31.1866V17.5045C29.8812 17.2778 29.7961 17.0602 29.6447 16.8999C29.4932 16.7395 29.2878 16.6494 29.0736 16.6494H25.0355" stroke="#CCCFD0" stroke-width="1.7" stroke-linecap="round" stroke-linejoin="round"/>
</g>
</g>
</svg>
