<svg width="102" height="103" viewBox="0 0 102 103" fill="none" xmlns="http://www.w3.org/2000/svg">
<g id="100&#38; Protection">
<g id="Group">
<path id="Vector" d="M51.0036 84.4411C50.7171 84.4411 50.4447 84.3847 50.1792 84.2789C33.9909 77.6046 23.5388 61.8927 23.5388 44.2476V31.3648C23.5388 30.4688 24.0698 29.6715 24.8873 29.3258L50.1652 18.7289C50.4307 18.616 50.7102 18.5596 50.9966 18.5596C51.2831 18.5596 51.5695 18.616 51.835 18.7289L77.113 29.3258C77.9304 29.6715 78.4614 30.4688 78.4614 31.3648V44.2476C78.4614 61.8927 68.0093 77.6117 51.828 84.2789C51.5625 84.3847 51.2831 84.4411 51.0036 84.4411ZM27.9055 32.8323V44.2405C27.9055 59.6209 36.9114 73.5691 50.8429 79.7706L51.0036 79.8411L51.1643 79.7706C65.0958 73.5691 74.1017 59.628 74.1017 44.2405V32.8323L51.0036 23.1525L27.9055 32.8323ZM48.146 58.9154C47.5661 58.9154 47.0142 58.6826 46.602 58.2663L39.3987 50.9924C38.9864 50.5761 38.7559 50.0188 38.7559 49.4332C38.7559 48.8476 38.9864 48.2902 39.3987 47.874C39.8109 47.4577 40.3628 47.2249 40.9427 47.2249C41.5226 47.2249 42.0746 47.4577 42.4868 47.874L48.153 53.5958L59.5204 42.1169C59.9326 41.7007 60.4846 41.4678 61.0645 41.4678C61.6444 41.4678 62.1963 41.7007 62.6085 42.1169C63.0208 42.5332 63.2513 43.0905 63.2513 43.6761C63.2513 44.2617 63.0208 44.8191 62.6085 45.2353L49.6901 58.2663C49.2779 58.6826 48.7329 58.9154 48.146 58.9154Z" fill="#B3C41D"/>
</g>
</g>
</svg>
