<svg width="103" height="104" viewBox="0 0 103 104" fill="none" xmlns="http://www.w3.org/2000/svg">
<g id="Transparancy">
<g id="Group">
<path id="Vector" d="M50.2354 78.2286C48.819 77.0872 47.5661 75.76 46.5038 74.2748C45.9113 73.4496 44.7673 73.2639 43.9502 73.8553C43.133 74.4535 42.9492 75.6088 43.5348 76.4339C44.7878 78.1874 46.2722 79.7689 47.9474 81.1167C48.2674 81.378 48.676 81.5224 49.0846 81.5224C49.643 81.5224 50.1673 81.2679 50.5146 80.8279C51.1547 80.0302 51.0253 78.8612 50.2354 78.2286Z" fill="#B3C41D"/>
<path id="Vector_2" d="M72.4414 45.3185C74.0076 46.2331 75.4444 47.3608 76.711 48.6742C77.0583 49.0317 77.5213 49.2311 78.0184 49.2311C78.5019 49.2311 78.9513 49.0455 79.2918 48.7085C80.0136 48.0003 80.0272 46.8244 79.3258 46.0956C77.8277 44.5415 76.1253 43.2075 74.2731 42.1279C73.4015 41.6191 72.278 41.9216 71.7741 42.8018C71.5289 43.2281 71.4608 43.7232 71.5902 44.2046C71.7128 44.679 72.0124 45.071 72.4414 45.3185Z" fill="#B3C41D"/>
<path id="Vector_3" d="M79.925 53.0684C80.7898 54.6775 81.4368 56.3897 81.8385 58.1706C82.0292 59.0164 82.7646 59.6078 83.6226 59.6078C83.7588 59.6078 83.895 59.594 84.0312 59.5596C85.0118 59.3327 85.6314 58.3425 85.4067 57.3523C84.93 55.2413 84.1674 53.2059 83.1391 51.3012C82.9076 50.868 82.5195 50.5517 82.0496 50.4142C81.5798 50.2766 81.0895 50.3316 80.6605 50.5654C80.2315 50.7992 79.9182 51.1912 79.782 51.6656C79.6458 52.1401 79.6867 52.6352 79.925 53.0684Z" fill="#B3C41D"/>
<path id="Vector_4" d="M60.1025 82.4298C58.3047 82.2029 56.5479 81.7284 54.8796 81.0201C53.9535 80.6213 52.8775 81.0683 52.4826 82.0035C52.0876 82.9386 52.5303 84.0251 53.4564 84.4239C55.4311 85.2628 57.5148 85.8267 59.6462 86.0949C59.7211 86.1017 59.796 86.1086 59.8709 86.1086C60.7902 86.1086 61.5733 85.4141 61.6823 84.4927C61.7436 84.0045 61.6074 83.5162 61.3077 83.1312C61.0081 82.7461 60.5859 82.4917 60.1025 82.4298Z" fill="#B3C41D"/>
<path id="Vector_5" d="M43.9776 69.4475C43.3919 67.8247 43.0174 66.1194 42.8676 64.3866C54.0761 63.472 63.0442 54.6154 64.2495 43.3795L64.2563 43.3864L64.2768 43.1732C64.2904 43.0288 64.304 42.8844 64.3176 42.7331C65.3731 42.8294 66.4218 43.0082 67.4432 43.2695C67.9199 43.3933 68.4102 43.3176 68.8255 43.0632C69.2477 42.8088 69.5405 42.4099 69.6631 41.9286C69.7857 41.4541 69.7108 40.9522 69.4656 40.5327C69.2137 40.1064 68.8187 39.8107 68.3421 39.6869C67.0346 39.35 65.6932 39.13 64.3312 39.0337C63.412 26.7251 53.2385 17.1533 40.9609 17.1533C28.0432 17.1533 17.5361 27.7634 17.5361 40.8078C17.5361 53.2195 27.0082 63.4789 39.1973 64.3935C39.3539 66.5526 39.8101 68.6774 40.5387 70.7059C40.8043 71.4348 41.4921 71.923 42.2547 71.923C42.4658 71.923 42.6769 71.8886 42.8812 71.813C43.8346 71.4623 44.318 70.4033 43.9776 69.4475ZM39.2109 60.694C29.0647 59.7932 21.1929 51.1566 21.1929 40.8078C21.1929 29.7988 30.0589 20.8459 40.9609 20.8459C51.2093 20.8459 59.7621 28.7949 60.6541 39.0406C49.2277 39.9757 40.137 49.1556 39.2109 60.694ZM42.8812 60.6803C43.7869 51.2254 51.2774 43.6683 60.6405 42.7469C59.728 52.2018 52.2443 59.7588 42.8812 60.6803Z" fill="#B3C41D"/>
<path id="Vector_6" d="M85.4816 62.4615C85.1547 62.097 84.7053 61.8839 84.215 61.8564C83.7179 61.8289 83.2617 62.0008 82.9008 62.3308C82.5399 62.6609 82.3288 63.1147 82.3015 63.6098C82.213 65.4389 81.8794 67.2474 81.3005 68.9733C80.9805 69.936 81.498 70.9881 82.4514 71.3113C82.642 71.3732 82.8395 71.4075 83.0302 71.4075C83.8133 71.4075 84.5147 70.8987 84.7598 70.1492C85.4407 68.1 85.8357 65.9615 85.9447 63.7886C85.9787 63.3004 85.8153 62.8259 85.4816 62.4615Z" fill="#B3C41D"/>
<path id="Vector_7" d="M81.4367 73.3734C80.606 72.8027 79.4688 73.0159 78.8968 73.8548C77.8753 75.3607 76.6564 76.7291 75.2673 77.9049C74.8927 78.2212 74.6612 78.6682 74.6204 79.1564C74.5795 79.6446 74.7293 80.126 75.0426 80.5042C75.3898 80.9236 75.9006 81.1643 76.4453 81.1643C76.8743 81.1643 77.2897 81.013 77.6234 80.7311C79.2645 79.3352 80.7081 77.7261 81.9202 75.9383C82.4854 75.0994 82.2743 73.9511 81.4367 73.3734Z" fill="#B3C41D"/>
<path id="Vector_8" d="M70.6911 80.8213C69.0432 81.5708 67.3 82.0934 65.5091 82.3616C65.0256 82.4372 64.6034 82.6916 64.3106 83.0905C64.0178 83.4893 63.902 83.9706 63.9701 84.4589C64.1063 85.3528 64.8826 86.0335 65.7747 86.0335C65.8632 86.0335 65.9517 86.0266 66.047 86.0129C68.1716 85.6897 70.2417 85.0777 72.196 84.1838C72.6387 83.9775 72.9791 83.6131 73.1562 83.1524C73.3264 82.6916 73.3128 82.1897 73.1085 81.7427C72.7 80.8144 71.6172 80.4018 70.6911 80.8213Z" fill="#B3C41D"/>
<path id="Vector_9" d="M31.4208 26.5812C30.9373 26.5262 30.4606 26.6637 30.0793 26.9731C25.871 30.3425 23.4604 35.3897 23.4604 40.8082C23.4604 41.8259 24.2776 42.6511 25.2854 42.6511C26.2932 42.6511 27.1104 41.8259 27.1104 40.8082C27.1104 36.5243 29.017 32.5292 32.3469 29.8612C32.7282 29.5517 32.9734 29.1185 33.0278 28.6234C33.0823 28.1352 32.9461 27.6539 32.6397 27.2619C32.3333 26.87 31.9111 26.6362 31.4208 26.5812Z" fill="#B3C41D"/>
<path id="Vector_10" d="M40.9608 23.1357C39.3129 23.1357 37.6786 23.3695 36.1056 23.8234C35.1386 24.1053 34.5734 25.1299 34.8526 26.1063C35.0773 26.8902 35.7992 27.4403 36.6095 27.4403C36.7797 27.4403 36.95 27.4128 37.1202 27.3647C38.3595 27.0002 39.6534 26.8214 40.9608 26.8214C41.9686 26.8214 42.7857 25.9963 42.7857 24.9786C42.7857 23.9609 41.9686 23.1357 40.9608 23.1357Z" fill="#B3C41D"/>
</g>
</g>
</svg>
